<svg width="43" height="41" viewBox="0 0 43 41" fill="none" xmlns="http://www.w3.org/2000/svg">
<path d="M10.125 2V6.625M32.875 2V6.625M2 34.375V11.25C2 10.0234 2.51361 8.84699 3.42785 7.97963C4.34209 7.11228 5.58207 6.625 6.875 6.625H36.125C37.4179 6.625 38.6579 7.11228 39.5721 7.97963C40.4864 8.84699 41 10.0234 41 11.25V34.375M2 34.375C2 35.6016 2.51361 36.778 3.42785 37.6454C4.34209 38.5127 5.58207 39 6.875 39H36.125C37.4179 39 38.6579 38.5127 39.5721 37.6454C40.4864 36.778 41 35.6016 41 34.375M2 34.375V18.9583C2 17.7317 2.51361 16.5553 3.42785 15.688C4.34209 14.8206 5.58207 14.3333 6.875 14.3333H36.125C37.4179 14.3333 38.6579 14.8206 39.5721 15.688C40.4864 16.5553 41 17.7317 41 18.9583V34.375M21.5 22.0417H21.5173V22.0581H21.5V22.0417ZM21.5 26.6667H21.5173V26.6831H21.5V26.6667ZM21.5 31.2917H21.5173V31.3081H21.5V31.2917ZM16.625 26.6667H16.6423V26.6831H16.625V26.6667ZM16.625 31.2917H16.6423V31.3081H16.625V31.2917ZM11.75 26.6667H11.7673V26.6831H11.75V26.6667ZM11.75 31.2917H11.7673V31.3081H11.75V31.2917ZM26.375 22.0417H26.3923V22.0581H26.375V22.0417ZM26.375 26.6667H26.3923V26.6831H26.375V26.6667ZM26.375 31.2917H26.3923V31.3081H26.375V31.2917ZM31.25 22.0417H31.2673V22.0581H31.25V22.0417ZM31.25 26.6667H31.2673V26.6831H31.25V26.6667Z" stroke="black" stroke-width="3" stroke-linecap="round" stroke-linejoin="round"/>
</svg>
