<svg width="102" height="114" viewBox="0 0 102 114" fill="none" xmlns="http://www.w3.org/2000/svg">
<path d="M99 111C99 102.627 99 98.4399 97.9666 95.0331C95.6398 87.3627 89.6373 81.3602 81.9669 79.0334C78.5601 78 74.3734 78 66 78H36C27.6266 78 23.4399 78 20.0331 79.0334C12.3627 81.3602 6.36024 87.3627 4.03344 95.0331C3 98.4399 3 102.627 3 111M78 30C78 44.9117 65.9117 57 51 57C36.0883 57 24 44.9117 24 30C24 15.0883 36.0883 3 51 3C65.9117 3 78 15.0883 78 30Z" stroke="#025048" stroke-width="6" stroke-linecap="round" stroke-linejoin="round"/>
</svg>
