<svg width="49" height="48" viewBox="0 0 49 48" fill="none" xmlns="http://www.w3.org/2000/svg">
<path d="M46 44.73C46 41.4946 46 39.8769 45.5371 38.5606C44.4949 35.5968 41.8063 33.2775 38.3706 32.3785C36.8446 31.9792 34.9693 31.9792 31.2187 31.9792H17.7813C14.0307 31.9792 12.1554 31.9792 10.6294 32.3785C7.19372 33.2775 4.50511 35.5968 3.46289 38.5606C3 39.8769 3 41.4946 3 44.73M36.5938 13.4325C36.5938 19.1942 31.1792 23.865 24.5 23.865C17.8208 23.865 12.4062 19.1942 12.4062 13.4325C12.4062 7.67079 17.8208 3 24.5 3C31.1792 3 36.5938 7.67079 36.5938 13.4325Z" stroke="white" stroke-width="5" stroke-linecap="round" stroke-linejoin="round"/>
</svg>
