<svg width="51" height="38" viewBox="0 0 51 38" fill="none" xmlns="http://www.w3.org/2000/svg">
<path d="M1.19232 36.225C0.493065 35.6292 0.143441 34.8708 0.143441 33.95C0.143441 33.0292 0.493065 32.2708 1.19232 31.675L15.972 19L1.19232 6.32501C0.493065 5.72917 0.126913 4.98492 0.0938573 4.09226C0.0608018 3.19959 0.426954 2.42717 1.19232 1.775C1.89157 1.17917 2.78153 0.881256 3.86219 0.881256C4.94285 0.881256 5.83281 1.17917 6.53206 1.775L24.0769 16.725C24.4583 17.05 24.7291 17.4021 24.8893 17.7813C25.0495 18.1604 25.1284 18.5667 25.1258 19C25.1258 19.4333 25.047 19.8396 24.8893 20.2188C24.7317 20.5979 24.4609 20.95 24.0769 21.275L6.53206 36.225C5.83281 36.8208 4.95938 37.1328 3.91177 37.161C2.86417 37.1892 1.95768 36.8772 1.19232 36.225ZM26.3654 36.225C25.6661 35.6292 25.3165 34.8708 25.3165 33.95C25.3165 33.0292 25.6661 32.2708 26.3654 31.675L41.145 19L26.3654 6.32501C25.6661 5.72917 25.3 4.98492 25.2669 4.09226C25.2339 3.19959 25.6 2.42717 26.3654 1.775C27.0646 1.17917 27.9546 0.881256 29.0353 0.881256C30.1159 0.881256 31.0059 1.17917 31.7051 1.775L49.25 16.725C49.6314 17.05 49.9022 17.4021 50.0624 17.7813C50.2226 18.1604 50.3014 18.5667 50.2989 19C50.2989 19.4333 50.2188 19.8396 50.0586 20.2188C49.8984 20.5979 49.6289 20.95 49.25 21.275L31.7051 36.225C31.0059 36.8208 30.1325 37.1328 29.0849 37.161C28.0372 37.1892 27.1308 36.8772 26.3654 36.225Z" fill="#2A6CA2"/>
</svg>
