<svg width="85" height="82" viewBox="0 0 85 82" fill="none" xmlns="http://www.w3.org/2000/svg">
<path d="M4.975 41H18.3338C21.0403 41 23.5146 42.8389 24.725 45.75C25.9354 48.6611 28.4097 50.5 31.1162 50.5H53.8838C56.5903 50.5 59.0646 48.6611 60.275 45.75C61.4854 42.8389 63.9597 41 66.6662 41H80.025M30.5179 3H54.4821C58.7357 3 60.8625 3 62.7402 3.77883C64.4007 4.46756 65.9131 5.59158 67.168 7.06954C68.587 8.74083 69.5381 11.0284 71.4404 15.6035L79.9983 36.1859C80.7449 37.9813 81.1181 38.879 81.3814 39.8198C81.6151 40.6554 81.7839 41.5152 81.8856 42.3883C82 43.3713 82 44.375 82 46.3823V56.2C82 64.1807 82 68.1711 80.7084 71.2194C79.5723 73.9007 77.7595 76.0806 75.5298 77.4468C72.9949 79 69.6766 79 63.04 79H21.96C15.3234 79 12.0051 79 9.47021 77.4468C7.24049 76.0806 5.42767 73.9007 4.29157 71.2194C3 68.1711 3 64.1807 3 56.2V46.3823C3 44.375 3 43.3713 3.11445 42.3883C3.21609 41.5152 3.38488 40.6554 3.61865 39.8198C3.88188 38.879 4.25515 37.9813 5.00166 36.1859L13.5596 15.6035C15.4619 11.0284 16.413 8.74084 17.832 7.06954C19.0869 5.59158 20.5993 4.46756 22.2598 3.77883C24.1375 3 26.2643 3 30.5179 3Z" stroke="#025048" stroke-width="5" stroke-linecap="round" stroke-linejoin="round"/>
</svg>
